<?xml version="1.0" encoding="UTF-8" standalone="no"?>
<!DOCTYPE svg PUBLIC "-//W3C//DTD SVG 1.1//EN" "http://www.w3.org/Graphics/SVG/1.1/DTD/svg11.dtd">
<svg width="100%" height="100%" viewBox="0 0 289 68" version="1.1" xmlns="http://www.w3.org/2000/svg" xmlns:xlink="http://www.w3.org/1999/xlink" xml:space="preserve" xmlns:serif="http://www.serif.com/" style="fill-rule:evenodd;clip-rule:evenodd;stroke-linejoin:round;stroke-miterlimit:2;">
    <g transform="matrix(1,0,0,1,-516.327,130.923)">
        <g transform="matrix(0.895544,0,0,0.895544,435.776,-201.327)">
            <path d="M137.5,109.404L144.101,134.316L103.662,131.803L108.625,108.156L137.5,109.404Z" style="fill:rgb(255,176,202);"/>
        </g>
        <g transform="matrix(2.39554,0,0,2.39554,-127.728,-1035.42)">
            <g transform="matrix(12,0,0,12,296.443,392.839)">
                <path d="M0.2,-0.331L0.2,-0.115L0.296,-0.115C0.342,-0.115 0.374,-0.123 0.392,-0.139C0.411,-0.154 0.42,-0.181 0.42,-0.22C0.42,-0.26 0.41,-0.288 0.391,-0.305C0.372,-0.322 0.34,-0.331 0.296,-0.331L0.2,-0.331ZM0.2,-0.615L0.2,-0.446L0.296,-0.446C0.332,-0.446 0.358,-0.452 0.374,-0.465C0.389,-0.478 0.397,-0.5 0.397,-0.53C0.397,-0.56 0.389,-0.581 0.373,-0.595C0.358,-0.608 0.332,-0.615 0.296,-0.615L0.2,-0.615ZM0.061,-0.73L0.296,-0.73C0.377,-0.73 0.438,-0.715 0.479,-0.684C0.52,-0.653 0.54,-0.607 0.54,-0.546C0.54,-0.499 0.528,-0.462 0.504,-0.436C0.48,-0.41 0.444,-0.394 0.398,-0.39C0.454,-0.385 0.496,-0.366 0.524,-0.334C0.552,-0.302 0.566,-0.257 0.566,-0.2C0.566,-0.13 0.545,-0.079 0.502,-0.047C0.46,-0.016 0.391,-0 0.296,-0L0.061,-0L0.061,-0.73Z" style="fill-rule:nonzero;"/>
            </g>
            <g transform="matrix(12,0,0,12,303.667,392.839)">
                <path d="M0.538,-0.027C0.505,-0.013 0.471,-0.003 0.437,0.004C0.402,0.011 0.366,0.014 0.327,0.014C0.236,0.014 0.166,-0.01 0.117,-0.059C0.069,-0.108 0.045,-0.179 0.045,-0.271C0.045,-0.36 0.068,-0.431 0.115,-0.482C0.161,-0.534 0.225,-0.56 0.305,-0.56C0.386,-0.56 0.449,-0.536 0.494,-0.488C0.539,-0.44 0.561,-0.372 0.561,-0.285L0.561,-0.227L0.19,-0.227C0.191,-0.184 0.203,-0.152 0.229,-0.131C0.254,-0.11 0.291,-0.099 0.341,-0.099C0.374,-0.099 0.406,-0.104 0.438,-0.113C0.47,-0.123 0.503,-0.138 0.538,-0.158L0.538,-0.027ZM0.417,-0.334C0.416,-0.372 0.407,-0.401 0.388,-0.42C0.369,-0.44 0.342,-0.449 0.305,-0.449C0.272,-0.449 0.246,-0.439 0.227,-0.419C0.207,-0.399 0.195,-0.371 0.192,-0.334L0.417,-0.334Z" style="fill-rule:nonzero;"/>
            </g>
            <g transform="matrix(12,0,0,12,310.892,392.839)">
                <path d="M0.562,-0.396C0.546,-0.41 0.528,-0.421 0.507,-0.428C0.486,-0.435 0.463,-0.439 0.438,-0.439C0.408,-0.439 0.381,-0.434 0.359,-0.423C0.336,-0.413 0.319,-0.397 0.306,-0.377C0.298,-0.365 0.293,-0.35 0.29,-0.332C0.287,-0.314 0.285,-0.288 0.285,-0.252L0.285,-0L0.142,-0L0.142,-0.547L0.285,-0.547L0.285,-0.462C0.299,-0.493 0.321,-0.517 0.35,-0.534C0.379,-0.552 0.412,-0.56 0.451,-0.56C0.471,-0.56 0.49,-0.558 0.509,-0.553C0.527,-0.548 0.545,-0.541 0.562,-0.532L0.562,-0.396Z" style="fill-rule:nonzero;"/>
            </g>
            <g transform="matrix(12,0,0,12,318.116,392.839)">
                <path d="M0.189,-0.228L0.189,-0.65L0.044,-0.65L0.044,-0.76L0.332,-0.76L0.332,-0.228C0.332,-0.185 0.339,-0.155 0.352,-0.137C0.365,-0.119 0.388,-0.11 0.42,-0.11L0.534,-0.11L0.534,-0L0.38,-0C0.312,-0 0.263,-0.018 0.233,-0.053C0.204,-0.088 0.189,-0.146 0.189,-0.228Z" style="fill-rule:nonzero;"/>
            </g>
            <g transform="matrix(12,0,0,12,325.341,392.839)">
                <path d="M0.108,-0.547L0.391,-0.547L0.391,-0.11L0.569,-0.11L0.569,-0L0.07,-0L0.07,-0.11L0.248,-0.11L0.248,-0.437L0.108,-0.437L0.108,-0.547ZM0.248,-0.813L0.391,-0.813L0.391,-0.646L0.248,-0.646L0.248,-0.813Z" style="fill-rule:nonzero;"/>
            </g>
            <g transform="matrix(12,0,0,12,332.566,392.839)">
                <path d="M0.523,-0.355L0.523,-0L0.381,-0L0.381,-0.333C0.381,-0.373 0.375,-0.401 0.364,-0.418C0.353,-0.435 0.334,-0.444 0.309,-0.444C0.283,-0.444 0.263,-0.432 0.248,-0.409C0.233,-0.386 0.226,-0.354 0.226,-0.313L0.226,-0L0.084,-0L0.084,-0.547L0.226,-0.547L0.226,-0.465C0.236,-0.495 0.253,-0.519 0.278,-0.535C0.302,-0.552 0.332,-0.56 0.366,-0.56C0.418,-0.56 0.457,-0.543 0.483,-0.509C0.51,-0.474 0.523,-0.423 0.523,-0.355Z" style="fill-rule:nonzero;"/>
            </g>
            <g transform="matrix(12,0,0,12,347.015,392.839)">
                <path d="M0.543,-0.602L0.233,-0.602L0.233,-0.445L0.515,-0.445L0.515,-0.318L0.233,-0.318L0.233,-0L0.089,-0L0.089,-0.729L0.543,-0.729L0.543,-0.602Z" style="fill-rule:nonzero;"/>
            </g>
            <g transform="matrix(12,0,0,12,354.239,392.839)">
                <rect x="0.238" y="-0.729" width="0.125" height="0.271" style="fill-rule:nonzero;"/>
            </g>
            <g transform="matrix(12,0,0,12,361.464,392.839)">
                <path d="M0.067,-0.729L0.211,-0.729L0.211,-0.451L0.391,-0.451L0.391,-0.729L0.535,-0.729L0.535,-0L0.391,-0L0.391,-0.324L0.211,-0.324L0.211,-0L0.067,-0L0.067,-0.729Z" style="fill-rule:nonzero;"/>
            </g>
            <g transform="matrix(12,0,0,12,368.689,392.839)">
                <path d="M0.342,-0.257C0.288,-0.257 0.251,-0.25 0.23,-0.236C0.209,-0.223 0.198,-0.199 0.198,-0.166C0.198,-0.141 0.206,-0.122 0.22,-0.107C0.235,-0.092 0.255,-0.085 0.28,-0.085C0.318,-0.085 0.347,-0.099 0.368,-0.128C0.389,-0.156 0.399,-0.196 0.399,-0.247L0.399,-0.257L0.342,-0.257ZM0.541,-0.312L0.541,-0L0.399,-0L0.399,-0.061C0.382,-0.037 0.36,-0.018 0.333,-0.005C0.306,0.008 0.276,0.014 0.243,0.014C0.181,0.014 0.133,-0.002 0.098,-0.035C0.063,-0.068 0.046,-0.114 0.046,-0.173C0.046,-0.237 0.067,-0.284 0.108,-0.314C0.149,-0.345 0.213,-0.36 0.3,-0.36L0.399,-0.36L0.399,-0.384C0.399,-0.407 0.391,-0.424 0.374,-0.436C0.357,-0.448 0.332,-0.454 0.3,-0.454C0.266,-0.454 0.233,-0.45 0.2,-0.441C0.168,-0.433 0.135,-0.419 0.1,-0.4L0.1,-0.522C0.132,-0.535 0.164,-0.545 0.196,-0.551C0.229,-0.557 0.263,-0.56 0.3,-0.56C0.389,-0.56 0.451,-0.542 0.487,-0.506C0.523,-0.47 0.541,-0.405 0.541,-0.312Z" style="fill-rule:nonzero;"/>
            </g>
            <g transform="matrix(12,0,0,12,375.913,392.839)">
                <path d="M0.108,-0.547L0.391,-0.547L0.391,-0.11L0.569,-0.11L0.569,-0L0.07,-0L0.07,-0.11L0.248,-0.11L0.248,-0.437L0.108,-0.437L0.108,-0.547ZM0.248,-0.813L0.391,-0.813L0.391,-0.646L0.248,-0.646L0.248,-0.813Z" style="fill-rule:nonzero;"/>
            </g>
            <g transform="matrix(12,0,0,12,383.138,392.839)">
                <path d="M0.523,-0.355L0.523,-0L0.381,-0L0.381,-0.333C0.381,-0.373 0.375,-0.401 0.364,-0.418C0.353,-0.435 0.334,-0.444 0.309,-0.444C0.283,-0.444 0.263,-0.432 0.248,-0.409C0.233,-0.386 0.226,-0.354 0.226,-0.313L0.226,-0L0.084,-0L0.084,-0.547L0.226,-0.547L0.226,-0.465C0.236,-0.495 0.253,-0.519 0.278,-0.535C0.302,-0.552 0.332,-0.56 0.366,-0.56C0.418,-0.56 0.457,-0.543 0.483,-0.509C0.51,-0.474 0.523,-0.423 0.523,-0.355Z" style="fill-rule:nonzero;"/>
            </g>
        </g>
        <g transform="matrix(1.82452,0,0,1.82452,41.0956,-786.7)">
            <g transform="matrix(12,0,0,12,296.443,392.874)">
                <path d="M0.524,-0.026C0.499,-0.013 0.473,-0.003 0.447,0.004C0.42,0.011 0.392,0.014 0.363,0.014C0.269,0.014 0.197,-0.019 0.145,-0.085C0.094,-0.151 0.068,-0.244 0.068,-0.364C0.068,-0.483 0.094,-0.576 0.146,-0.642C0.198,-0.709 0.27,-0.742 0.363,-0.742C0.392,-0.742 0.42,-0.739 0.447,-0.732C0.473,-0.726 0.499,-0.715 0.524,-0.702L0.524,-0.601C0.5,-0.621 0.474,-0.636 0.446,-0.646C0.419,-0.657 0.391,-0.662 0.363,-0.662C0.299,-0.662 0.251,-0.637 0.219,-0.588C0.187,-0.538 0.171,-0.464 0.171,-0.364C0.171,-0.264 0.187,-0.19 0.219,-0.14C0.251,-0.091 0.299,-0.066 0.363,-0.066C0.391,-0.066 0.42,-0.071 0.447,-0.082C0.475,-0.092 0.5,-0.107 0.524,-0.127L0.524,-0.026Z" style="fill-rule:nonzero;"/>
            </g>
            <g transform="matrix(12,0,0,12,303.667,392.874)">
                <path d="M0.513,-0.339L0.513,-0L0.423,-0L0.423,-0.339C0.423,-0.388 0.414,-0.424 0.397,-0.447C0.38,-0.47 0.353,-0.482 0.316,-0.482C0.274,-0.482 0.242,-0.467 0.219,-0.437C0.196,-0.407 0.185,-0.365 0.185,-0.309L0.185,-0L0.095,-0L0.095,-0.76L0.185,-0.76L0.185,-0.465C0.201,-0.496 0.223,-0.52 0.25,-0.536C0.277,-0.552 0.31,-0.56 0.347,-0.56C0.403,-0.56 0.444,-0.542 0.472,-0.505C0.499,-0.469 0.513,-0.413 0.513,-0.339Z" style="fill-rule:nonzero;"/>
            </g>
            <g transform="matrix(12,0,0,12,310.892,392.874)">
                <path d="M0.547,-0.318L0.547,-0.274L0.158,-0.274L0.158,-0.271C0.155,-0.197 0.169,-0.143 0.2,-0.111C0.232,-0.078 0.275,-0.062 0.332,-0.062C0.361,-0.062 0.391,-0.067 0.422,-0.076C0.453,-0.085 0.486,-0.099 0.522,-0.117L0.522,-0.028C0.488,-0.014 0.455,-0.003 0.423,0.004C0.391,0.011 0.361,0.014 0.331,0.014C0.246,0.014 0.18,-0.011 0.132,-0.062C0.084,-0.113 0.06,-0.183 0.06,-0.273C0.06,-0.36 0.083,-0.43 0.13,-0.482C0.177,-0.534 0.24,-0.56 0.318,-0.56C0.388,-0.56 0.442,-0.536 0.483,-0.489C0.523,-0.442 0.544,-0.385 0.547,-0.318ZM0.457,-0.345C0.453,-0.382 0.439,-0.415 0.416,-0.443C0.392,-0.47 0.358,-0.484 0.314,-0.484C0.271,-0.484 0.235,-0.47 0.207,-0.441C0.179,-0.412 0.164,-0.38 0.161,-0.344L0.457,-0.345Z" style="fill-rule:nonzero;"/>
            </g>
            <g transform="matrix(12,0,0,12,318.116,392.874)">
                <path d="M0.475,-0.528L0.475,-0.44C0.449,-0.455 0.424,-0.466 0.397,-0.474C0.371,-0.481 0.345,-0.485 0.318,-0.485C0.277,-0.485 0.247,-0.478 0.227,-0.465C0.207,-0.452 0.197,-0.432 0.197,-0.405C0.197,-0.38 0.204,-0.362 0.219,-0.35C0.234,-0.338 0.271,-0.326 0.331,-0.315L0.367,-0.308C0.412,-0.3 0.446,-0.283 0.469,-0.257C0.491,-0.232 0.503,-0.199 0.503,-0.158C0.503,-0.104 0.484,-0.062 0.445,-0.031C0.407,-0.001 0.354,0.014 0.285,0.014C0.258,0.014 0.23,0.011 0.2,0.006C0.171,-0 0.139,-0.009 0.104,-0.02L0.104,-0.113C0.138,-0.096 0.17,-0.083 0.2,-0.074C0.231,-0.065 0.26,-0.061 0.287,-0.061C0.327,-0.061 0.358,-0.069 0.379,-0.085C0.401,-0.101 0.412,-0.124 0.412,-0.153C0.412,-0.194 0.372,-0.223 0.292,-0.239L0.289,-0.24L0.255,-0.247C0.203,-0.257 0.165,-0.274 0.142,-0.298C0.118,-0.322 0.106,-0.355 0.106,-0.396C0.106,-0.448 0.124,-0.489 0.159,-0.517C0.195,-0.546 0.245,-0.56 0.311,-0.56C0.34,-0.56 0.368,-0.557 0.396,-0.552C0.423,-0.547 0.449,-0.539 0.475,-0.528Z" style="fill-rule:nonzero;"/>
            </g>
            <g transform="matrix(12,0,0,12,325.341,392.874)">
                <path d="M0.475,-0.528L0.475,-0.44C0.449,-0.455 0.424,-0.466 0.397,-0.474C0.371,-0.481 0.345,-0.485 0.318,-0.485C0.277,-0.485 0.247,-0.478 0.227,-0.465C0.207,-0.452 0.197,-0.432 0.197,-0.405C0.197,-0.38 0.204,-0.362 0.219,-0.35C0.234,-0.338 0.271,-0.326 0.331,-0.315L0.367,-0.308C0.412,-0.3 0.446,-0.283 0.469,-0.257C0.491,-0.232 0.503,-0.199 0.503,-0.158C0.503,-0.104 0.484,-0.062 0.445,-0.031C0.407,-0.001 0.354,0.014 0.285,0.014C0.258,0.014 0.23,0.011 0.2,0.006C0.171,-0 0.139,-0.009 0.104,-0.02L0.104,-0.113C0.138,-0.096 0.17,-0.083 0.2,-0.074C0.231,-0.065 0.26,-0.061 0.287,-0.061C0.327,-0.061 0.358,-0.069 0.379,-0.085C0.401,-0.101 0.412,-0.124 0.412,-0.153C0.412,-0.194 0.372,-0.223 0.292,-0.239L0.289,-0.24L0.255,-0.247C0.203,-0.257 0.165,-0.274 0.142,-0.298C0.118,-0.322 0.106,-0.355 0.106,-0.396C0.106,-0.448 0.124,-0.489 0.159,-0.517C0.195,-0.546 0.245,-0.56 0.311,-0.56C0.34,-0.56 0.368,-0.557 0.396,-0.552C0.423,-0.547 0.449,-0.539 0.475,-0.528Z" style="fill-rule:nonzero;"/>
            </g>
            <g transform="matrix(12,0,0,12,339.79,392.874)">
                <path d="M0.524,-0.026C0.499,-0.013 0.473,-0.003 0.447,0.004C0.42,0.011 0.392,0.014 0.363,0.014C0.269,0.014 0.197,-0.019 0.145,-0.085C0.094,-0.151 0.068,-0.244 0.068,-0.364C0.068,-0.483 0.094,-0.576 0.146,-0.642C0.198,-0.709 0.27,-0.742 0.363,-0.742C0.392,-0.742 0.42,-0.739 0.447,-0.732C0.473,-0.726 0.499,-0.715 0.524,-0.702L0.524,-0.601C0.5,-0.621 0.474,-0.636 0.446,-0.646C0.419,-0.657 0.391,-0.662 0.363,-0.662C0.299,-0.662 0.251,-0.637 0.219,-0.588C0.187,-0.538 0.171,-0.464 0.171,-0.364C0.171,-0.264 0.187,-0.19 0.219,-0.14C0.251,-0.091 0.299,-0.066 0.363,-0.066C0.391,-0.066 0.42,-0.071 0.447,-0.082C0.475,-0.092 0.5,-0.107 0.524,-0.127L0.524,-0.026Z" style="fill-rule:nonzero;"/>
            </g>
            <g transform="matrix(12,0,0,12,347.015,392.874)">
                <path d="M0.351,-0.198C0.351,-0.157 0.358,-0.127 0.373,-0.106C0.388,-0.086 0.41,-0.076 0.439,-0.076L0.544,-0.076L0.544,-0L0.43,-0C0.376,-0 0.335,-0.017 0.305,-0.052C0.276,-0.086 0.261,-0.135 0.261,-0.198L0.261,-0.692L0.117,-0.692L0.117,-0.763L0.351,-0.763L0.351,-0.198Z" style="fill-rule:nonzero;"/>
            </g>
            <g transform="matrix(12,0,0,12,354.239,392.874)">
                <path d="M0.095,-0.207L0.095,-0.546L0.185,-0.546L0.185,-0.207C0.185,-0.158 0.194,-0.122 0.211,-0.099C0.229,-0.076 0.256,-0.064 0.292,-0.064C0.334,-0.064 0.367,-0.079 0.389,-0.109C0.412,-0.138 0.423,-0.181 0.423,-0.237L0.423,-0.546L0.513,-0.546L0.513,-0L0.423,-0L0.423,-0.082C0.407,-0.05 0.385,-0.027 0.358,-0.01C0.33,0.006 0.298,0.014 0.261,0.014C0.205,0.014 0.164,-0.004 0.136,-0.041C0.109,-0.077 0.095,-0.133 0.095,-0.207Z" style="fill-rule:nonzero;"/>
            </g>
            <g transform="matrix(12,0,0,12,361.464,392.874)">
                <path d="M0.448,-0.273C0.448,-0.343 0.437,-0.395 0.415,-0.431C0.393,-0.466 0.36,-0.484 0.317,-0.484C0.273,-0.484 0.24,-0.466 0.218,-0.43C0.195,-0.395 0.184,-0.342 0.184,-0.273C0.184,-0.204 0.195,-0.152 0.218,-0.116C0.24,-0.08 0.273,-0.062 0.317,-0.062C0.36,-0.062 0.393,-0.08 0.415,-0.115C0.437,-0.151 0.448,-0.203 0.448,-0.273ZM0.184,-0.477C0.198,-0.504 0.218,-0.524 0.243,-0.539C0.269,-0.553 0.298,-0.56 0.331,-0.56C0.397,-0.56 0.449,-0.535 0.486,-0.484C0.524,-0.434 0.543,-0.364 0.543,-0.275C0.543,-0.185 0.524,-0.114 0.486,-0.063C0.448,-0.011 0.396,0.014 0.33,0.014C0.298,0.014 0.269,0.007 0.244,-0.007C0.219,-0.021 0.199,-0.042 0.184,-0.069L0.184,-0L0.094,-0L0.094,-0.76L0.184,-0.76L0.184,-0.477Z" style="fill-rule:nonzero;"/>
            </g>
        </g>
        <g transform="matrix(0.0882232,0,0,0.0882232,454.701,-185.407)">
            <path d="M732.473,659.534L851.402,659.534L875.848,723.469C879.383,732.714 888.255,738.82 898.153,738.82C911.342,738.82 922.033,728.129 922.033,714.94L922.033,617.559L1069.93,617.559L1069.93,710.276C1069.93,723.465 1080.63,734.157 1093.81,734.157L1097.36,734.157C1107.8,734.157 1117.04,727.369 1120.15,717.399L1138.23,659.534L1252.5,659.534L1196.96,782.093C1189.6,798.342 1173.41,808.779 1155.58,808.779L839.074,808.779C822.265,808.779 806.83,799.501 798.944,784.657L732.473,659.534Z" style="fill:rgb(3,4,4);fill-rule:nonzero;"/>
        </g>
        <g transform="matrix(0.0882232,0,0,0.0882232,454.701,-185.407)">
            <path d="M1159.22,846.091L839.743,846.091L762.788,1219.2L1236.18,1219.2L1205.86,1109.6L891.046,1109.6L921.361,946.365L1187.2,946.365L1159.22,846.091Z" style="fill:rgb(3,4,4);fill-rule:nonzero;"/>
        </g>
        <g transform="matrix(0.0882232,0,0,0.0882232,454.701,-185.407)">
            <path d="M1301.47,1382.44L698.529,1382.44L724.375,1249.52L1273.16,1249.52L1301.47,1382.44Z" style="fill:rgb(3,4,4);fill-rule:nonzero;"/>
        </g>
    </g>
</svg>
