<svg viewBox="0 0 289 68" xmlns="http://www.w3.org/2000/svg" xml:space="preserve" style="fill-rule:evenodd;clip-rule:evenodd;stroke-linejoin:round;stroke-miterlimit:2"><path d="m137.5 109.404 6.601 24.912-40.439-2.513 4.963-23.647 28.875 1.248Z" style="fill:#ffb0ca" transform="matrix(.89554 0 0 .89554 -80.551 -70.404)"/><path d="M.2-.331v.216h.096c.046 0 .078-.008.096-.024C.411-.154.42-.181.42-.22c0-.04-.01-.068-.029-.085C.372-.322.34-.331.296-.331H.2Zm0-.284v.169h.096c.036 0 .062-.006.078-.019C.389-.478.397-.5.397-.53S.389-.581.373-.595C.358-.608.332-.615.296-.615H.2ZM.061-.73h.235c.081 0 .142.015.183.046.041.031.061.077.061.138a.157.157 0 0 1-.036.11.158.158 0 0 1-.106.046.182.182 0 0 1 .126.056.197.197 0 0 1 .042.134c0 .07-.021.121-.064.153C.46-.016.391 0 .296 0H.061v-.73Z" style="fill-rule:nonzero" transform="translate(66.086 36.565) scale(28.74648)"/><path d="M.538-.027a.534.534 0 0 1-.211.041C.236.014.166-.01.117-.059.069-.108.045-.179.045-.271a.3.3 0 0 1 .07-.211.242.242 0 0 1 .19-.078c.081 0 .144.024.189.072a.286.286 0 0 1 .067.203v.058H.19c.001.043.013.075.039.096.025.021.062.032.112.032a.355.355 0 0 0 .197-.059v.131ZM.417-.334C.416-.372.407-.401.388-.42.369-.44.342-.449.305-.449a.102.102 0 0 0-.078.03.13.13 0 0 0-.035.085h.225Z" style="fill-rule:nonzero" transform="translate(83.391 36.565) scale(28.74648)"/><path d="M.562-.396a.16.16 0 0 0-.055-.032.217.217 0 0 0-.148.005.119.119 0 0 0-.053.046.114.114 0 0 0-.016.045.507.507 0 0 0-.005.08V0H.142v-.547h.143v.085A.157.157 0 0 1 .35-.534a.225.225 0 0 1 .212.002v.136Z" style="fill-rule:nonzero" transform="translate(100.7 36.565) scale(28.74648)"/><path d="M.189-.228V-.65H.044v-.11h.288v.532c0 .043.007.073.02.091.013.018.036.027.068.027h.114V0H.38C.312 0 .263-.018.233-.053.204-.088.189-.146.189-.228Z" style="fill-rule:nonzero" transform="translate(118.005 36.565) scale(28.74648)"/><path d="M.108-.547h.283v.437h.178V0H.07v-.11h.178v-.327h-.14v-.11Zm.14-.266h.143v.167H.248v-.167Z" style="fill-rule:nonzero" transform="translate(135.312 36.565) scale(28.74648)"/><path d="M.523-.355V0H.381v-.333a.162.162 0 0 0-.017-.085C.353-.435.334-.444.309-.444a.07.07 0 0 0-.061.035.175.175 0 0 0-.022.096V0H.084v-.547h.142v.082a.128.128 0 0 1 .052-.07.15.15 0 0 1 .088-.025c.052 0 .091.017.117.051.027.035.04.086.04.154Z" style="fill-rule:nonzero" transform="translate(152.62 36.565) scale(28.74648)"/><path d="M.543-.602h-.31v.157h.282v.127H.233V0H.089v-.729h.454v.127Z" style="fill-rule:nonzero" transform="translate(187.233 36.565) scale(28.74648)"/><path style="fill-rule:nonzero" d="M.238-.729h.125v.271H.238z" transform="translate(204.539 36.565) scale(28.74648)"/><path d="M.067-.729h.144v.278h.18v-.278h.144V0H.391v-.324h-.18V0H.067v-.729Z" style="fill-rule:nonzero" transform="translate(221.846 36.565) scale(28.74648)"/><path d="M.342-.257c-.054 0-.091.007-.112.021-.021.013-.032.037-.032.07 0 .025.008.044.022.059a.08.08 0 0 0 .06.022.102.102 0 0 0 .088-.043.196.196 0 0 0 .031-.119v-.01H.342Zm.199-.055V0H.399v-.061a.17.17 0 0 1-.066.056.205.205 0 0 1-.09.019.202.202 0 0 1-.145-.049.18.18 0 0 1-.052-.138c0-.064.021-.111.062-.141C.149-.345.213-.36.3-.36h.099v-.024c0-.023-.008-.04-.025-.052A.128.128 0 0 0 .3-.454.431.431 0 0 0 .1-.4v-.122A.501.501 0 0 1 .3-.56c.089 0 .151.018.187.054.036.036.054.101.054.194Z" style="fill-rule:nonzero" transform="translate(239.154 36.565) scale(28.74648)"/><path d="M.108-.547h.283v.437h.178V0H.07v-.11h.178v-.327h-.14v-.11Zm.14-.266h.143v.167H.248v-.167Z" style="fill-rule:nonzero" transform="translate(256.46 36.565) scale(28.74648)"/><path d="M.523-.355V0H.381v-.333a.162.162 0 0 0-.017-.085C.353-.435.334-.444.309-.444a.07.07 0 0 0-.061.035.175.175 0 0 0-.022.096V0H.084v-.547h.142v.082a.128.128 0 0 1 .052-.07.15.15 0 0 1 .088-.025c.052 0 .091.017.117.051.027.035.04.086.04.154Z" style="fill-rule:nonzero" transform="translate(273.767 36.565) scale(28.74648)"/><path d="M.524-.026a.333.333 0 0 1-.161.04.261.261 0 0 1-.218-.099.447.447 0 0 1-.077-.279.44.44 0 0 1 .078-.278.258.258 0 0 1 .217-.1.333.333 0 0 1 .161.04v.101a.256.256 0 0 0-.161-.061.16.16 0 0 0-.144.074.419.419 0 0 0-.048.224c0 .1.016.174.048.224a.16.16 0 0 0 .144.074.25.25 0 0 0 .161-.061v.101Z" style="fill-rule:nonzero" transform="translate(65.635 61.03) scale(21.89424)"/><path d="M.513-.339V0h-.09v-.339c0-.049-.009-.085-.026-.108C.38-.47.353-.482.316-.482a.115.115 0 0 0-.097.045.205.205 0 0 0-.034.128V0h-.09v-.76h.09v.295A.173.173 0 0 1 .25-.536.189.189 0 0 1 .347-.56c.056 0 .097.018.125.055a.278.278 0 0 1 .041.166Z" style="fill-rule:nonzero" transform="translate(78.815 61.03) scale(21.89424)"/><path d="M.547-.318v.044H.158v.003c-.003.074.011.128.042.16a.174.174 0 0 0 .132.049.323.323 0 0 0 .09-.014.605.605 0 0 0 .1-.041v.089a.597.597 0 0 1-.099.032.424.424 0 0 1-.092.01.26.26 0 0 1-.199-.076.295.295 0 0 1-.072-.211.3.3 0 0 1 .07-.209.242.242 0 0 1 .188-.078c.07 0 .124.024.165.071.04.047.061.104.064.171Zm-.09-.027a.183.183 0 0 0-.041-.098.13.13 0 0 0-.102-.041.142.142 0 0 0-.107.043.155.155 0 0 0-.046.097l.296-.001Z" style="fill-rule:nonzero" transform="translate(91.997 61.03) scale(21.89424)"/><path d="M.475-.528v.088a.301.301 0 0 0-.157-.045.168.168 0 0 0-.091.02c-.02.013-.03.033-.03.06 0 .025.007.043.022.055a.299.299 0 0 0 .112.035l.036.007a.171.171 0 0 1 .102.051.145.145 0 0 1 .034.099.153.153 0 0 1-.058.127.252.252 0 0 1-.16.045.518.518 0 0 1-.181-.034v-.093c.034.017.066.03.096.039.031.009.06.013.087.013a.15.15 0 0 0 .092-.024.08.08 0 0 0 .033-.068c0-.041-.04-.07-.12-.086L.289-.24.255-.247a.209.209 0 0 1-.113-.051.133.133 0 0 1-.036-.098c0-.052.018-.093.053-.121A.235.235 0 0 1 .311-.56a.48.48 0 0 1 .164.032Z" style="fill-rule:nonzero" transform="translate(105.178 61.03) scale(21.89424)"/><path d="M.475-.528v.088a.301.301 0 0 0-.157-.045.168.168 0 0 0-.091.02c-.02.013-.03.033-.03.06 0 .025.007.043.022.055a.299.299 0 0 0 .112.035l.036.007a.171.171 0 0 1 .102.051.145.145 0 0 1 .034.099.153.153 0 0 1-.058.127.252.252 0 0 1-.16.045.518.518 0 0 1-.181-.034v-.093c.034.017.066.03.096.039.031.009.06.013.087.013a.15.15 0 0 0 .092-.024.08.08 0 0 0 .033-.068c0-.041-.04-.07-.12-.086L.289-.24.255-.247a.209.209 0 0 1-.113-.051.133.133 0 0 1-.036-.098c0-.052.018-.093.053-.121A.235.235 0 0 1 .311-.56a.48.48 0 0 1 .164.032Z" style="fill-rule:nonzero" transform="translate(118.36 61.03) scale(21.89424)"/><path d="M.524-.026a.333.333 0 0 1-.161.04.261.261 0 0 1-.218-.099.447.447 0 0 1-.077-.279.44.44 0 0 1 .078-.278.258.258 0 0 1 .217-.1.333.333 0 0 1 .161.04v.101a.256.256 0 0 0-.161-.061.16.16 0 0 0-.144.074.419.419 0 0 0-.048.224c0 .1.016.174.048.224a.16.16 0 0 0 .144.074.25.25 0 0 0 .161-.061v.101Z" style="fill-rule:nonzero" transform="translate(144.722 61.03) scale(21.89424)"/><path d="M.351-.198c0 .041.007.071.022.092.015.02.037.03.066.03h.105V0H.43a.155.155 0 0 1-.125-.052.22.22 0 0 1-.044-.146v-.494H.117v-.071h.234v.565Z" style="fill-rule:nonzero" transform="translate(157.904 61.03) scale(21.89424)"/><path d="M.095-.207v-.339h.09v.339c0 .049.009.085.026.108.018.023.045.035.081.035a.114.114 0 0 0 .097-.045c.023-.029.034-.072.034-.128v-.309h.09V0h-.09v-.082a.175.175 0 0 1-.065.072.191.191 0 0 1-.097.024C.205.014.164-.004.136-.041a.278.278 0 0 1-.041-.166Z" style="fill-rule:nonzero" transform="translate(171.085 61.03) scale(21.89424)"/><path d="M.448-.273a.305.305 0 0 0-.033-.158.11.11 0 0 0-.098-.053.108.108 0 0 0-.099.054.29.29 0 0 0-.034.157c0 .069.011.121.034.157a.108.108 0 0 0 .099.054.11.11 0 0 0 .098-.053.305.305 0 0 0 .033-.158ZM.184-.477a.153.153 0 0 1 .059-.062.182.182 0 0 1 .088-.021.18.18 0 0 1 .155.076.34.34 0 0 1 .057.209c0 .09-.019.161-.057.212A.182.182 0 0 1 .33.014a.156.156 0 0 1-.146-.083V0h-.09v-.76h.09v.283Z" style="fill-rule:nonzero" transform="translate(184.267 61.03) scale(21.89424)"/><path d="M732.473 659.534h118.929l24.446 63.935a23.88 23.88 0 0 0 22.305 15.351c13.189 0 23.88-10.691 23.88-23.88v-97.381h147.897v92.717c0 13.189 10.7 23.881 23.88 23.881h3.55c10.44 0 19.68-6.788 22.79-16.758l18.08-57.865h114.27l-55.54 122.559a45.432 45.432 0 0 1-41.38 26.686H839.074a45.44 45.44 0 0 1-40.13-24.122l-66.471-125.123ZM1159.22 846.091H839.743L762.788 1219.2h473.392l-30.32-109.6H891.046l30.315-163.235H1187.2l-27.98-100.274ZM1301.47 1382.44H698.529l25.846-132.92h548.785l28.31 132.92Z" style="fill:#030404;fill-rule:nonzero" transform="matrix(.08822 0 0 .08822 -61.626 -54.484)"/></svg>